<svg width="31" height="31" viewBox="0 0 31 31" fill="none" xmlns="http://www.w3.org/2000/svg">
<path d="M0.916666 0.916687H3.45417C5.02917 0.916687 6.26875 2.27294 6.1375 3.83335L4.92708 18.3584C4.87982 18.9211 4.94996 19.4875 5.13305 20.0217C5.31614 20.5558 5.60819 21.0462 5.9907 21.4616C6.37321 21.877 6.83784 22.2084 7.35514 22.4349C7.87244 22.6613 8.43114 22.7779 8.99583 22.7771H24.5271C26.6271 22.7771 28.4646 21.0563 28.625 18.9709L29.4125 8.03335C29.5875 5.61252 27.75 3.64377 25.3146 3.64377H6.4875M11.125 9.66669H28.625M21.6979 30.0834C22.1814 30.0834 22.6451 29.8913 22.9869 29.5494C23.3288 29.2076 23.5208 28.7439 23.5208 28.2604C23.5208 27.777 23.3288 27.3133 22.9869 26.9714C22.6451 26.6296 22.1814 26.4375 21.6979 26.4375C21.2144 26.4375 20.7508 26.6296 20.4089 26.9714C20.0671 27.3133 19.875 27.777 19.875 28.2604C19.875 28.7439 20.0671 29.2076 20.4089 29.5494C20.7508 29.8913 21.2144 30.0834 21.6979 30.0834ZM10.0312 30.0834C10.5147 30.0834 10.9784 29.8913 11.3202 29.5494C11.6621 29.2076 11.8542 28.7439 11.8542 28.2604C11.8542 27.777 11.6621 27.3133 11.3202 26.9714C10.9784 26.6296 10.5147 26.4375 10.0312 26.4375C9.54778 26.4375 9.08412 26.6296 8.74225 26.9714C8.40039 27.3133 8.20833 27.777 8.20833 28.2604C8.20833 28.7439 8.40039 29.2076 8.74225 29.5494C9.08412 29.8913 9.54778 30.0834 10.0312 30.0834V30.0834Z" stroke="#F7D662" stroke-width="1.5" stroke-miterlimit="10" stroke-linecap="round" stroke-linejoin="round"/>
</svg>
