<svg width="66" height="46" viewBox="0 0 66 46" fill="none" xmlns="http://www.w3.org/2000/svg">
<path d="M63.6111 10.358C52.2655 9.665 40.8519 9.308 29.4723 9.308C22.7263 9.308 15.9803 9.518 9.23434 9.938L2.28394 10.358M21.0228 8.237L21.7723 5.486C22.3175 3.491 22.7263 2 28.4842 2H37.4107C43.1687 2 43.6116 3.575 44.1227 5.507L44.8722 8.237M56.2859 16.994L54.0713 38.141C53.6965 41.438 53.3899 44 43.8842 44H22.0108C12.5051 44 12.1985 41.438 11.8237 38.141L9.60912 16.994M27.2577 32.45H38.6032M24.4298 24.05H41.4652" stroke="#006A81" stroke-width="3" stroke-linecap="round" stroke-linejoin="round"/>
</svg>
