<svg width="42" height="56" viewBox="0 0 42 56" fill="none" xmlns="http://www.w3.org/2000/svg">
<path d="M33.9166 0.466187H8.08331C6.02789 0.466187 4.05664 1.33004 2.60324 2.8677C1.14983 4.40536 0.333313 6.49088 0.333313 8.66546V46.9287C0.333313 49.1033 1.14983 51.1888 2.60324 52.7265C4.05664 54.2642 6.02789 55.128 8.08331 55.128H33.9166C35.9721 55.128 37.9433 54.2642 39.3967 52.7265C40.8501 51.1888 41.6666 49.1033 41.6666 46.9287V8.66546C41.6666 6.49088 40.8501 4.40536 39.3967 2.8677C37.9433 1.33004 35.9721 0.466187 33.9166 0.466187ZM36.5 46.9287C36.5 47.6536 36.2278 48.3488 35.7433 48.8613C35.2589 49.3739 34.6018 49.6618 33.9166 49.6618H8.08331C7.39817 49.6618 6.74109 49.3739 6.25662 48.8613C5.77215 48.3488 5.49998 47.6536 5.49998 46.9287V8.66546C5.49998 7.9406 5.77215 7.24543 6.25662 6.73287C6.74109 6.22032 7.39817 5.93237 8.08331 5.93237H33.9166C34.6018 5.93237 35.2589 6.22032 35.7433 6.73287C36.2278 7.24543 36.5 7.9406 36.5 8.66546V46.9287Z" fill="#006A81"/>
<path d="M20.9999 44.1956C23.14 44.1956 24.8749 42.3602 24.8749 40.096C24.8749 37.8318 23.14 35.9964 20.9999 35.9964C18.8598 35.9964 17.1249 37.8318 17.1249 40.096C17.1249 42.3602 18.8598 44.1956 20.9999 44.1956Z" fill="#006A81"/>
<path d="M27.4583 11.3985H14.5416C13.8564 11.3985 13.1994 11.6864 12.7149 12.199C12.2304 12.7116 11.9583 13.4067 11.9583 14.1316C11.9583 14.8565 12.2304 15.5516 12.7149 16.0642C13.1994 16.5767 13.8564 16.8647 14.5416 16.8647H27.4583C28.1434 16.8647 28.8005 16.5767 29.2849 16.0642C29.7694 15.5516 30.0416 14.8565 30.0416 14.1316C30.0416 13.4067 29.7694 12.7116 29.2849 12.199C28.8005 11.6864 28.1434 11.3985 27.4583 11.3985Z" fill="#006A81"/>
</svg>
