<svg width="47" height="47" viewBox="0 0 47 47" fill="none" xmlns="http://www.w3.org/2000/svg">
<path d="M15.5 0.800262H5.16667C3.79638 0.800262 2.48222 1.33102 1.51328 2.27576C0.544343 3.22051 0 4.50186 0 5.83793V15.9133C0 17.2493 0.544343 18.5307 1.51328 19.4754C2.48222 20.4202 3.79638 20.9509 5.16667 20.9509H15.5C16.8703 20.9509 18.1844 20.4202 19.1534 19.4754C20.1223 18.5307 20.6667 17.2493 20.6667 15.9133V5.83793C20.6667 4.50186 20.1223 3.22051 19.1534 2.27576C18.1844 1.33102 16.8703 0.800262 15.5 0.800262Z" fill="#006A81"/>
<path d="M41.3333 0.800262H31C29.6297 0.800262 28.3156 1.33102 27.3466 2.27576C26.3777 3.22051 25.8333 4.50186 25.8333 5.83793V15.9133C25.8333 17.2493 26.3777 18.5307 27.3466 19.4754C28.3156 20.4202 29.6297 20.9509 31 20.9509H41.3333C42.7036 20.9509 44.0178 20.4202 44.9867 19.4754C45.9557 18.5307 46.5 17.2493 46.5 15.9133V5.83793C46.5 4.50186 45.9557 3.22051 44.9867 2.27576C44.0178 1.33102 42.7036 0.800262 41.3333 0.800262Z" fill="#006A81"/>
<path d="M15.5 25.9886H5.1667C3.79641 25.9886 2.48225 26.5194 1.51331 27.4641C0.544374 28.4089 3.05176e-05 29.6902 3.05176e-05 31.0263V41.1016C3.05176e-05 42.4377 0.544374 43.719 1.51331 44.6638C2.48225 45.6085 3.79641 46.1393 5.1667 46.1393H15.5C16.8703 46.1393 18.1845 45.6085 19.1534 44.6638C20.1224 43.719 20.6667 42.4377 20.6667 41.1016V31.0263C20.6667 29.6902 20.1224 28.4089 19.1534 27.4641C18.1845 26.5194 16.8703 25.9886 15.5 25.9886Z" fill="#006A81"/>
<path d="M41.3333 25.9886H31C29.6297 25.9886 28.3156 26.5194 27.3466 27.4641C26.3777 28.4089 25.8333 29.6902 25.8333 31.0263V41.1016C25.8333 42.4377 26.3777 43.719 27.3466 44.6638C28.3156 45.6085 29.6297 46.1393 31 46.1393H41.3333C42.7036 46.1393 44.0178 45.6085 44.9867 44.6638C45.9557 43.719 46.5 42.4377 46.5 41.1016V31.0263C46.5 29.6902 45.9557 28.4089 44.9867 27.4641C44.0178 26.5194 42.7036 25.9886 41.3333 25.9886Z" fill="#006A81"/>
</svg>
