<svg width="47" height="47" viewBox="0 0 47 47" fill="none" xmlns="http://www.w3.org/2000/svg">
<path d="M38.75 9.32217H29.4758L35.4175 3.99068C35.6584 3.77361 35.8494 3.5159 35.9798 3.23228C36.1101 2.94866 36.1772 2.64468 36.1772 2.33769C36.1772 2.0307 36.1101 1.72671 35.9798 1.44309C35.8494 1.15947 35.6584 0.901766 35.4175 0.684692C35.1766 0.467618 34.8907 0.295425 34.576 0.177946C34.2613 0.0604659 33.924 0 33.5833 0C32.8954 0 32.2356 0.246291 31.7492 0.684692L23.25 8.36762L14.7508 0.684692C14.51 0.467618 14.224 0.295425 13.9093 0.177946C13.5946 0.0604659 13.2573 0 12.9167 0C12.576 0 12.2387 0.0604659 11.924 0.177946C11.6093 0.295425 11.3234 0.467618 11.0825 0.684692C10.596 1.12309 10.3228 1.71769 10.3228 2.33769C10.3228 2.64468 10.3899 2.94866 10.5202 3.23228C10.6506 3.5159 10.8416 3.77361 11.0825 3.99068L17.0242 9.32217H7.75C5.69457 9.32217 3.72333 10.058 2.26992 11.3679C0.816516 12.6777 0 14.4542 0 16.3066V39.5882C0 41.4406 0.816516 43.2172 2.26992 44.527C3.72333 45.8369 5.69457 46.5727 7.75 46.5727H38.75C40.8054 46.5727 42.7767 45.8369 44.2301 44.527C45.6835 43.2172 46.5 41.4406 46.5 39.5882V16.3066C46.5 14.4542 45.6835 12.6777 44.2301 11.3679C42.7767 10.058 40.8054 9.32217 38.75 9.32217ZM41.3333 39.5882C41.3333 40.2057 41.0612 40.7979 40.5767 41.2345C40.0922 41.6711 39.4351 41.9164 38.75 41.9164H7.75C7.06486 41.9164 6.40778 41.6711 5.92331 41.2345C5.43884 40.7979 5.16667 40.2057 5.16667 39.5882V23.2911C5.16667 22.6737 5.43884 22.0815 5.92331 21.6449C6.40778 21.2083 7.06486 20.963 7.75 20.963H38.75C39.4351 20.963 40.0922 21.2083 40.5767 21.6449C41.0612 22.0815 41.3333 22.6737 41.3333 23.2911V39.5882Z" fill="#006A81"/>
</svg>
