<svg width="133" height="20" viewBox="0 0 133 20" fill="none" xmlns="http://www.w3.org/2000/svg">
<path d="M14.1455 19.0041C13.9998 19.0048 13.8561 18.967 13.7264 18.8941L9.07911 16.2241L4.43186 18.8941C4.28096 18.9812 4.11082 19.0201 3.94078 19.0063C3.77075 18.9926 3.60764 18.9267 3.47 18.8163C3.33236 18.7059 3.22571 18.5553 3.16218 18.3817C3.09864 18.208 3.08077 18.0183 3.11059 17.8341L4.02181 12.2041L0.267563 8.20411C0.150432 8.07584 0.0673408 7.91498 0.0272069 7.7388C-0.0129269 7.56263 -0.00858853 7.37778 0.0397566 7.20411C0.0925711 7.02638 0.189723 6.86846 0.320186 6.74827C0.45065 6.62807 0.609202 6.55042 0.77785 6.52411L5.97184 5.69411L8.25901 0.56411C8.33363 0.395039 8.45013 0.252452 8.59517 0.152684C8.74022 0.0529152 8.90794 0 9.07911 0C9.25029 0 9.41801 0.0529152 9.56306 0.152684C9.7081 0.252452 9.8246 0.395039 9.89922 0.56411L12.2137 5.68411L17.4077 6.51411C17.5764 6.54042 17.7349 6.61807 17.8654 6.73827C17.9958 6.85846 18.093 7.01638 18.1458 7.19411C18.1942 7.36778 18.1985 7.55263 18.1584 7.7288C18.1182 7.90498 18.0351 8.06583 17.918 8.19411L14.1638 12.1941L15.075 17.8241C15.1075 18.0116 15.0905 18.2054 15.0259 18.3826C14.9613 18.5598 14.8519 18.713 14.7105 18.8241C14.5455 18.951 14.3468 19.0143 14.1455 19.0041Z" fill="#F7D662"/>
<path d="M44.216 19.0041C44.0702 19.0048 43.9265 18.967 43.7968 18.8941L39.1495 16.2241L34.5023 18.8941C34.3514 18.9812 34.1813 19.0201 34.0112 19.0063C33.8412 18.9926 33.6781 18.9267 33.5404 18.8163C33.4028 18.7059 33.2961 18.5553 33.2326 18.3817C33.1691 18.208 33.1512 18.0183 33.181 17.8341L34.0922 12.2041L30.338 8.20411C30.2209 8.07584 30.1378 7.91498 30.0976 7.7388C30.0575 7.56263 30.0618 7.37778 30.1102 7.20411C30.163 7.02638 30.2602 6.86846 30.3906 6.74827C30.5211 6.62807 30.6796 6.55042 30.8483 6.52411L36.0423 5.69411L38.3294 0.56411C38.4041 0.395039 38.5206 0.252452 38.6656 0.152684C38.8107 0.0529152 38.9784 0 39.1495 0C39.3207 0 39.4884 0.0529152 39.6335 0.152684C39.7785 0.252452 39.895 0.395039 39.9697 0.56411L42.2842 5.68411L47.4782 6.51411C47.6468 6.54042 47.8054 6.61807 47.9358 6.73827C48.0663 6.85846 48.1634 7.01638 48.2162 7.19411C48.2646 7.36778 48.2689 7.55263 48.2288 7.7288C48.1887 7.90498 48.1056 8.06583 47.9884 8.19411L44.2342 12.1941L45.1454 17.8241C45.1779 18.0116 45.1609 18.2054 45.0963 18.3826C45.0317 18.5598 44.9223 18.713 44.7809 18.8241C44.6159 18.951 44.4172 19.0143 44.216 19.0041Z" fill="#F7D662"/>
<path d="M72.464 19.0041C72.3183 19.0048 72.1745 18.967 72.0448 18.8941L67.3976 16.2241L62.7503 18.8941C62.5994 18.9812 62.4293 19.0201 62.2593 19.0063C62.0892 18.9926 61.9261 18.9267 61.7885 18.8163C61.6508 18.7059 61.5442 18.5553 61.4807 18.3817C61.4171 18.208 61.3992 18.0183 61.4291 17.8341L62.3403 12.2041L58.586 8.20411C58.4689 8.07584 58.3858 7.91498 58.3457 7.7388C58.3056 7.56263 58.3099 7.37778 58.3582 7.20411C58.4111 7.02638 58.5082 6.86846 58.6387 6.74827C58.7691 6.62807 58.9277 6.55042 59.0963 6.52411L64.2903 5.69411L66.5775 0.56411C66.6521 0.395039 66.7686 0.252452 66.9137 0.152684C67.0587 0.0529152 67.2264 0 67.3976 0C67.5688 0 67.7365 0.0529152 67.8815 0.152684C68.0266 0.252452 68.1431 0.395039 68.2177 0.56411L70.5322 5.68411L75.7262 6.51411C75.8948 6.54042 76.0534 6.61807 76.1839 6.73827C76.3143 6.85846 76.4115 7.01638 76.4643 7.19411C76.5126 7.36778 76.517 7.55263 76.4768 7.7288C76.4367 7.90498 76.3536 8.06583 76.2365 8.19411L72.4822 12.1941L73.3935 17.8241C73.426 18.0116 73.409 18.2054 73.3444 18.3826C73.2798 18.5598 73.1703 18.713 73.029 18.8241C72.864 18.951 72.6653 19.0143 72.464 19.0041Z" fill="#F7D662"/>
<path d="M100.712 19.0041C100.566 19.0048 100.422 18.967 100.293 18.8941L95.6455 16.2241L90.9983 18.8941C90.8474 18.9812 90.6772 19.0201 90.5072 19.0063C90.3372 18.9926 90.174 18.9267 90.0364 18.8163C89.8988 18.7059 89.7921 18.5553 89.7286 18.3817C89.665 18.208 89.6472 18.0183 89.677 17.8341L90.5882 12.2041L86.834 8.20411C86.7168 8.07584 86.6337 7.91498 86.5936 7.7388C86.5535 7.56263 86.5578 7.37778 86.6062 7.20411C86.659 7.02638 86.7561 6.86846 86.8866 6.74827C87.0171 6.62807 87.1756 6.55042 87.3443 6.52411L92.5382 5.69411L94.8254 0.56411C94.9 0.395039 95.0165 0.252452 95.1616 0.152684C95.3066 0.0529152 95.4743 0 95.6455 0C95.8167 0 95.9844 0.0529152 96.1295 0.152684C96.2745 0.252452 96.391 0.395039 96.4656 0.56411L98.7801 5.68411L103.974 6.51411C104.143 6.54042 104.301 6.61807 104.432 6.73827C104.562 6.85846 104.659 7.01638 104.712 7.19411C104.761 7.36778 104.765 7.55263 104.725 7.7288C104.685 7.90498 104.602 8.06583 104.484 8.19411L100.73 12.1941L101.641 17.8241C101.674 18.0116 101.657 18.2054 101.592 18.3826C101.528 18.5598 101.418 18.713 101.277 18.8241C101.112 18.951 100.913 19.0143 100.712 19.0041Z" fill="#F7D662"/>
<path d="M128.96 19.0041C128.814 19.0048 128.671 18.967 128.541 18.8941L123.894 16.2241L119.246 18.8941C119.095 18.9812 118.925 19.0201 118.755 19.0063C118.585 18.9926 118.422 18.9267 118.284 18.8163C118.147 18.7059 118.04 18.5553 117.977 18.3817C117.913 18.208 117.895 18.0183 117.925 17.8341L118.836 12.2041L115.082 8.20411C114.965 8.07584 114.882 7.91498 114.842 7.7388C114.802 7.56263 114.806 7.37778 114.854 7.20411C114.907 7.02638 115.004 6.86846 115.135 6.74827C115.265 6.62807 115.424 6.55042 115.592 6.52411L120.786 5.69411L123.073 0.56411C123.148 0.395039 123.265 0.252452 123.41 0.152684C123.555 0.0529152 123.722 0 123.894 0C124.065 0 124.232 0.0529152 124.378 0.152684C124.523 0.252452 124.639 0.395039 124.714 0.56411L127.028 5.68411L132.222 6.51411C132.391 6.54042 132.549 6.61807 132.68 6.73827C132.81 6.85846 132.907 7.01638 132.96 7.19411C133.009 7.36778 133.013 7.55263 132.973 7.7288C132.933 7.90498 132.85 8.06583 132.732 8.19411L128.978 12.1941L129.889 17.8241C129.922 18.0116 129.905 18.2054 129.84 18.3826C129.776 18.5598 129.666 18.713 129.525 18.8241C129.36 18.951 129.161 19.0143 128.96 19.0041Z" fill="#F7D662"/>
</svg>
